<mxfile host="app.diagrams.net" modified="2023-09-26T14:17:12.071Z" agent="Mozilla/5.0 (Windows NT 10.0; Win64; x64) AppleWebKit/537.36 (KHTML, like Gecko) Chrome/114.0.0.0 Safari/537.36" etag="rJaBPF5T_YxwP9UtDMW1" version="21.8.2" type="device">
  <diagram name="Página-1" id="6ptiiop5Qt6cBSE_hmE4">
    <mxGraphModel dx="1434" dy="796" grid="1" gridSize="10" guides="1" tooltips="1" connect="1" arrows="1" fold="1" page="1" pageScale="1" pageWidth="827" pageHeight="1169" math="0" shadow="0">
      <root>
        <mxCell id="0" />
        <mxCell id="1" parent="0" />
        <mxCell id="-ZSBs_RmOTVZb_KnmWA--7" value="" style="endArrow=none;html=1;rounded=0;" parent="1" source="-ZSBs_RmOTVZb_KnmWA--6" target="0G5Jt0Bgdf21u58A2daR-32" edge="1">
          <mxGeometry relative="1" as="geometry">
            <mxPoint x="410" y="479" as="sourcePoint" />
            <mxPoint x="561" y="390" as="targetPoint" />
          </mxGeometry>
        </mxCell>
        <mxCell id="-ZSBs_RmOTVZb_KnmWA--4" value="" style="endArrow=none;html=1;rounded=0;entryX=0.467;entryY=0.5;entryDx=0;entryDy=0;entryPerimeter=0;" parent="1" source="-ZSBs_RmOTVZb_KnmWA--2" target="0G5Jt0Bgdf21u58A2daR-24" edge="1">
          <mxGeometry relative="1" as="geometry">
            <mxPoint x="194" y="231" as="sourcePoint" />
            <mxPoint x="260" y="170" as="targetPoint" />
          </mxGeometry>
        </mxCell>
        <mxCell id="0G5Jt0Bgdf21u58A2daR-24" value="Póliza" style="rounded=1;whiteSpace=wrap;html=1;" parent="1" vertex="1">
          <mxGeometry x="304" y="150" width="120" height="60" as="geometry" />
        </mxCell>
        <mxCell id="0G5Jt0Bgdf21u58A2daR-29" value="Cliente" style="rounded=1;whiteSpace=wrap;html=1;" parent="1" vertex="1">
          <mxGeometry x="20" y="310" width="120" height="60" as="geometry" />
        </mxCell>
        <mxCell id="0G5Jt0Bgdf21u58A2daR-30" value="Director" style="rounded=1;whiteSpace=wrap;html=1;" parent="1" vertex="1">
          <mxGeometry x="490" y="585" width="120" height="60" as="geometry" />
        </mxCell>
        <mxCell id="0G5Jt0Bgdf21u58A2daR-31" value="Vendedor" style="rounded=1;whiteSpace=wrap;html=1;" parent="1" vertex="1">
          <mxGeometry x="110" y="585" width="120" height="60" as="geometry" />
        </mxCell>
        <mxCell id="0G5Jt0Bgdf21u58A2daR-32" value="Sucursal" style="rounded=1;whiteSpace=wrap;html=1;" parent="1" vertex="1">
          <mxGeometry x="600" y="310" width="120" height="60" as="geometry" />
        </mxCell>
        <mxCell id="-ZSBs_RmOTVZb_KnmWA--2" value="Contrata&lt;br&gt;1xN" style="shape=rhombus;perimeter=rhombusPerimeter;whiteSpace=wrap;html=1;align=center;" parent="1" vertex="1">
          <mxGeometry x="140" y="200" width="120" height="60" as="geometry" />
        </mxCell>
        <mxCell id="-ZSBs_RmOTVZb_KnmWA--3" value="" style="endArrow=none;html=1;rounded=0;" parent="1" source="0G5Jt0Bgdf21u58A2daR-29" target="-ZSBs_RmOTVZb_KnmWA--2" edge="1">
          <mxGeometry relative="1" as="geometry">
            <mxPoint x="270" y="460" as="sourcePoint" />
            <mxPoint x="430" y="460" as="targetPoint" />
          </mxGeometry>
        </mxCell>
        <mxCell id="-ZSBs_RmOTVZb_KnmWA--5" value="" style="endArrow=none;html=1;rounded=0;" parent="1" source="0G5Jt0Bgdf21u58A2daR-30" target="-ZSBs_RmOTVZb_KnmWA--6" edge="1">
          <mxGeometry relative="1" as="geometry">
            <mxPoint x="270" y="460" as="sourcePoint" />
            <mxPoint x="350" y="520" as="targetPoint" />
          </mxGeometry>
        </mxCell>
        <mxCell id="-ZSBs_RmOTVZb_KnmWA--6" value="Dirige&lt;br&gt;1xN" style="shape=rhombus;perimeter=rhombusPerimeter;whiteSpace=wrap;html=1;align=center;" parent="1" vertex="1">
          <mxGeometry x="545" y="460" width="120" height="60" as="geometry" />
        </mxCell>
        <mxCell id="-ZSBs_RmOTVZb_KnmWA--8" value="Trabaja&lt;br&gt;Nx1" style="shape=rhombus;perimeter=rhombusPerimeter;whiteSpace=wrap;html=1;align=center;" parent="1" vertex="1">
          <mxGeometry x="350" y="440" width="120" height="60" as="geometry" />
        </mxCell>
        <mxCell id="-ZSBs_RmOTVZb_KnmWA--9" value="" style="endArrow=none;html=1;rounded=0;" parent="1" source="0G5Jt0Bgdf21u58A2daR-31" target="-ZSBs_RmOTVZb_KnmWA--8" edge="1">
          <mxGeometry relative="1" as="geometry">
            <mxPoint x="270" y="460" as="sourcePoint" />
            <mxPoint x="430" y="460" as="targetPoint" />
          </mxGeometry>
        </mxCell>
        <mxCell id="-ZSBs_RmOTVZb_KnmWA--10" value="" style="endArrow=none;html=1;rounded=0;" parent="1" source="0G5Jt0Bgdf21u58A2daR-32" target="-ZSBs_RmOTVZb_KnmWA--8" edge="1">
          <mxGeometry relative="1" as="geometry">
            <mxPoint x="578" y="595" as="sourcePoint" />
            <mxPoint x="626" y="513" as="targetPoint" />
          </mxGeometry>
        </mxCell>
        <mxCell id="-ZSBs_RmOTVZb_KnmWA--12" value="Vendida&lt;br&gt;Nx1" style="shape=rhombus;perimeter=rhombusPerimeter;whiteSpace=wrap;html=1;align=center;" parent="1" vertex="1">
          <mxGeometry x="500" y="190" width="120" height="60" as="geometry" />
        </mxCell>
        <mxCell id="-ZSBs_RmOTVZb_KnmWA--13" value="" style="endArrow=none;html=1;rounded=0;" parent="1" source="0G5Jt0Bgdf21u58A2daR-24" target="-ZSBs_RmOTVZb_KnmWA--12" edge="1">
          <mxGeometry relative="1" as="geometry">
            <mxPoint x="270" y="460" as="sourcePoint" />
            <mxPoint x="430" y="460" as="targetPoint" />
          </mxGeometry>
        </mxCell>
        <mxCell id="-ZSBs_RmOTVZb_KnmWA--14" value="" style="endArrow=none;html=1;rounded=0;" parent="1" source="-ZSBs_RmOTVZb_KnmWA--12" target="0G5Jt0Bgdf21u58A2daR-32" edge="1">
          <mxGeometry relative="1" as="geometry">
            <mxPoint x="270" y="460" as="sourcePoint" />
            <mxPoint x="430" y="460" as="targetPoint" />
          </mxGeometry>
        </mxCell>
        <mxCell id="-ZSBs_RmOTVZb_KnmWA--16" value="Vende&lt;br&gt;1xN" style="shape=rhombus;perimeter=rhombusPerimeter;whiteSpace=wrap;html=1;align=center;" parent="1" vertex="1">
          <mxGeometry x="210" y="360" width="120" height="60" as="geometry" />
        </mxCell>
        <mxCell id="-ZSBs_RmOTVZb_KnmWA--17" value="" style="endArrow=none;html=1;rounded=0;" parent="1" source="0G5Jt0Bgdf21u58A2daR-31" target="-ZSBs_RmOTVZb_KnmWA--16" edge="1">
          <mxGeometry relative="1" as="geometry">
            <mxPoint x="270" y="460" as="sourcePoint" />
            <mxPoint x="430" y="460" as="targetPoint" />
          </mxGeometry>
        </mxCell>
        <mxCell id="-ZSBs_RmOTVZb_KnmWA--18" value="" style="endArrow=none;html=1;rounded=0;" parent="1" source="-ZSBs_RmOTVZb_KnmWA--16" target="0G5Jt0Bgdf21u58A2daR-24" edge="1">
          <mxGeometry relative="1" as="geometry">
            <mxPoint x="270" y="460" as="sourcePoint" />
            <mxPoint x="430" y="460" as="targetPoint" />
          </mxGeometry>
        </mxCell>
        <mxCell id="-ZSBs_RmOTVZb_KnmWA--20" value="&lt;b&gt;Cliente&lt;/b&gt;" style="swimlane;childLayout=stackLayout;horizontal=1;startSize=50;horizontalStack=0;rounded=1;fontSize=14;fontStyle=0;strokeWidth=2;resizeParent=0;resizeLast=1;shadow=0;dashed=0;align=center;arcSize=4;whiteSpace=wrap;html=1;" parent="1" vertex="1">
          <mxGeometry x="10" y="730" width="130" height="210" as="geometry" />
        </mxCell>
        <mxCell id="-ZSBs_RmOTVZb_KnmWA--21" value="&lt;font style=&quot;font-size: 14px;&quot;&gt;&lt;u&gt;&lt;span style=&quot;line-height: 107%; font-family: Calibri, sans-serif;&quot;&gt;DNI&lt;br&gt;&lt;/span&gt;&lt;/u&gt;&lt;span style=&quot;font-family: Calibri, sans-serif;&quot;&gt;nombre&lt;br&gt;ape1&lt;br&gt;&lt;b style=&quot;&quot;&gt;N &lt;/b&gt;ape2&lt;br&gt;dirección&lt;br&gt;&lt;b style=&quot;&quot;&gt;N &lt;/b&gt;teléfono fijo&lt;br&gt;teléfono móvil&lt;br&gt;&lt;b style=&quot;&quot;&gt;N &lt;/b&gt;teléfono trabajo&lt;/span&gt;&lt;/font&gt;" style="align=left;strokeColor=none;fillColor=none;spacingLeft=4;fontSize=12;verticalAlign=top;resizable=0;rotatable=0;part=1;html=1;" parent="-ZSBs_RmOTVZb_KnmWA--20" vertex="1">
          <mxGeometry y="50" width="130" height="160" as="geometry" />
        </mxCell>
        <mxCell id="-ZSBs_RmOTVZb_KnmWA--23" value="&lt;b&gt;Póliza&lt;/b&gt;" style="swimlane;childLayout=stackLayout;horizontal=1;startSize=50;horizontalStack=0;rounded=1;fontSize=14;fontStyle=0;strokeWidth=2;resizeParent=0;resizeLast=1;shadow=0;dashed=0;align=center;arcSize=4;whiteSpace=wrap;html=1;" parent="1" vertex="1">
          <mxGeometry x="160" y="730" width="120" height="230" as="geometry" />
        </mxCell>
        <mxCell id="-ZSBs_RmOTVZb_KnmWA--24" value="&lt;font style=&quot;font-size: 14px;&quot;&gt;&lt;u&gt;&lt;font style=&quot;&quot;&gt;Nº Póliza&lt;/font&gt;&lt;br&gt;&lt;/u&gt;&lt;span style=&quot;line-height: 107%;&quot;&gt;tipo&lt;br&gt;cliente&lt;br&gt;precio&lt;br&gt;tipo pago&lt;br&gt;fecha contrato&lt;br&gt;fecha inicio&lt;br&gt;fecha fin&lt;br&gt;ventas&lt;br&gt;vendedor&lt;/span&gt;&lt;/font&gt;" style="align=left;strokeColor=none;fillColor=none;spacingLeft=4;fontSize=12;verticalAlign=top;resizable=0;rotatable=0;part=1;html=1;" parent="-ZSBs_RmOTVZb_KnmWA--23" vertex="1">
          <mxGeometry y="50" width="120" height="180" as="geometry" />
        </mxCell>
        <mxCell id="-ZSBs_RmOTVZb_KnmWA--25" value="&lt;b&gt;Sucursal&lt;/b&gt;" style="swimlane;childLayout=stackLayout;horizontal=1;startSize=50;horizontalStack=0;rounded=1;fontSize=14;fontStyle=0;strokeWidth=2;resizeParent=0;resizeLast=1;shadow=0;dashed=0;align=center;arcSize=4;whiteSpace=wrap;html=1;" parent="1" vertex="1">
          <mxGeometry x="300" y="730" width="136" height="150" as="geometry" />
        </mxCell>
        <mxCell id="-ZSBs_RmOTVZb_KnmWA--26" value="&lt;font style=&quot;font-size: 14px;&quot;&gt;&lt;u style=&quot;&quot;&gt;Código sucursal&lt;br&gt;&lt;/u&gt;&lt;span style=&quot;line-height: 107%;&quot;&gt;tipo&lt;br&gt;director&lt;br&gt;vendedor&lt;br&gt;ventas sucursales&lt;/span&gt;&lt;/font&gt;" style="align=left;strokeColor=none;fillColor=none;spacingLeft=4;fontSize=12;verticalAlign=top;resizable=0;rotatable=0;part=1;html=1;" parent="-ZSBs_RmOTVZb_KnmWA--25" vertex="1">
          <mxGeometry y="50" width="136" height="100" as="geometry" />
        </mxCell>
        <mxCell id="-ZSBs_RmOTVZb_KnmWA--27" value="&lt;b&gt;Director&lt;/b&gt;" style="swimlane;childLayout=stackLayout;horizontal=1;startSize=50;horizontalStack=0;rounded=1;fontSize=14;fontStyle=0;strokeWidth=2;resizeParent=0;resizeLast=1;shadow=0;dashed=0;align=center;arcSize=4;whiteSpace=wrap;html=1;" parent="1" vertex="1">
          <mxGeometry x="460" y="730" width="150" height="240" as="geometry">
            <mxRectangle x="620" y="730" width="90" height="50" as="alternateBounds" />
          </mxGeometry>
        </mxCell>
        <mxCell id="-ZSBs_RmOTVZb_KnmWA--28" value="&lt;font style=&quot;font-size: 14px;&quot;&gt;&lt;u style=&quot;&quot;&gt;Código SS&lt;br&gt;&lt;/u&gt;&lt;span style=&quot;line-height: 107%; font-family: Calibri, sans-serif;&quot;&gt;DNI&lt;br&gt;nombre&lt;br&gt;ape1&lt;br&gt;&lt;b style=&quot;&quot;&gt;N &lt;/b&gt;ape2&lt;br&gt;nº cuenta&lt;br&gt;dirección&lt;br&gt;teléfono móvil&lt;br&gt;&lt;b style=&quot;&quot;&gt;N&amp;nbsp;&lt;/b&gt;teléfono fijo&lt;br&gt;sucursal/es asociada/s&lt;/span&gt;&lt;/font&gt;" style="align=left;strokeColor=none;fillColor=none;spacingLeft=4;fontSize=12;verticalAlign=top;resizable=0;rotatable=0;part=1;html=1;" parent="-ZSBs_RmOTVZb_KnmWA--27" vertex="1">
          <mxGeometry y="50" width="150" height="190" as="geometry" />
        </mxCell>
        <mxCell id="-ZSBs_RmOTVZb_KnmWA--29" value="&lt;b&gt;Vendedor&lt;/b&gt;" style="swimlane;childLayout=stackLayout;horizontal=1;startSize=50;horizontalStack=0;rounded=1;fontSize=14;fontStyle=0;strokeWidth=2;resizeParent=0;resizeLast=1;shadow=0;dashed=0;align=center;arcSize=4;whiteSpace=wrap;html=1;" parent="1" vertex="1">
          <mxGeometry x="630" y="730" width="160" height="260" as="geometry" />
        </mxCell>
        <mxCell id="-ZSBs_RmOTVZb_KnmWA--30" value="&lt;p style=&quot;line-height: 126%;&quot; class=&quot;MsoNormal&quot;&gt;&lt;font style=&quot;font-size: 14px;&quot;&gt;&lt;u style=&quot;border-color: var(--border-color);&quot;&gt;Código SS&lt;br style=&quot;border-color: var(--border-color);&quot;&gt;&lt;/u&gt;DNI&lt;br style=&quot;border-color: var(--border-color);&quot;&gt;nombre&lt;br style=&quot;border-color: var(--border-color);&quot;&gt;ape1&lt;br style=&quot;border-color: var(--border-color);&quot;&gt;&lt;b style=&quot;border-color: var(--border-color);&quot;&gt;N&amp;nbsp;&lt;/b&gt;ape2&lt;br style=&quot;border-color: var(--border-color);&quot;&gt;nº cuenta&lt;br style=&quot;border-color: var(--border-color);&quot;&gt;dirección&lt;br style=&quot;border-color: var(--border-color);&quot;&gt;teléfono móvil&lt;br style=&quot;border-color: var(--border-color);&quot;&gt;&lt;b style=&quot;border-color: var(--border-color);&quot;&gt;N&amp;nbsp;&lt;/b&gt;teléfono fijo&lt;br style=&quot;border-color: var(--border-color);&quot;&gt;sucursal asociada&lt;/font&gt;&lt;/p&gt;&lt;p style=&quot;line-height: 0%;&quot; class=&quot;MsoNormal&quot;&gt;&lt;font style=&quot;font-size: 14px;&quot;&gt;&lt;b&gt;N&amp;nbsp;&lt;/b&gt;ventas&lt;/font&gt;&lt;/p&gt;" style="align=left;strokeColor=none;fillColor=none;spacingLeft=4;fontSize=12;verticalAlign=top;resizable=0;rotatable=0;part=1;html=1;" parent="-ZSBs_RmOTVZb_KnmWA--29" vertex="1">
          <mxGeometry y="50" width="160" height="210" as="geometry" />
        </mxCell>
        <mxCell id="-ZSBs_RmOTVZb_KnmWA--33" value="(1,1)" style="text;html=1;strokeColor=none;fillColor=none;align=center;verticalAlign=middle;whiteSpace=wrap;rounded=0;" parent="1" vertex="1">
          <mxGeometry x="90" y="260" width="60" height="30" as="geometry" />
        </mxCell>
        <mxCell id="-ZSBs_RmOTVZb_KnmWA--34" value="(1,n)" style="text;html=1;strokeColor=none;fillColor=none;align=center;verticalAlign=middle;whiteSpace=wrap;rounded=0;" parent="1" vertex="1">
          <mxGeometry x="240" y="180" width="60" height="30" as="geometry" />
        </mxCell>
        <mxCell id="-ZSBs_RmOTVZb_KnmWA--35" value="(1,1)" style="text;html=1;strokeColor=none;fillColor=none;align=center;verticalAlign=middle;whiteSpace=wrap;rounded=0;" parent="1" vertex="1">
          <mxGeometry x="170" y="480" width="60" height="30" as="geometry" />
        </mxCell>
        <mxCell id="-ZSBs_RmOTVZb_KnmWA--37" value="(0,n)" style="text;html=1;strokeColor=none;fillColor=none;align=center;verticalAlign=middle;whiteSpace=wrap;rounded=0;" parent="1" vertex="1">
          <mxGeometry x="260" y="290" width="60" height="30" as="geometry" />
        </mxCell>
        <mxCell id="-ZSBs_RmOTVZb_KnmWA--38" value="(1,1)" style="text;html=1;strokeColor=none;fillColor=none;align=center;verticalAlign=middle;whiteSpace=wrap;rounded=0;" parent="1" vertex="1">
          <mxGeometry x="455" y="400" width="60" height="30" as="geometry" />
        </mxCell>
        <mxCell id="-ZSBs_RmOTVZb_KnmWA--39" value="(1,n)" style="text;html=1;strokeColor=none;fillColor=none;align=center;verticalAlign=middle;whiteSpace=wrap;rounded=0;" parent="1" vertex="1">
          <mxGeometry x="260" y="510" width="60" height="30" as="geometry" />
        </mxCell>
        <mxCell id="-ZSBs_RmOTVZb_KnmWA--41" value="(1,n)" style="text;html=1;strokeColor=none;fillColor=none;align=center;verticalAlign=middle;whiteSpace=wrap;rounded=0;" parent="1" vertex="1">
          <mxGeometry x="260" y="510" width="60" height="30" as="geometry" />
        </mxCell>
        <mxCell id="-ZSBs_RmOTVZb_KnmWA--42" value="(1,1)" style="text;html=1;strokeColor=none;fillColor=none;align=center;verticalAlign=middle;whiteSpace=wrap;rounded=0;" parent="1" vertex="1">
          <mxGeometry x="530" y="540" width="60" height="30" as="geometry" />
        </mxCell>
        <mxCell id="-ZSBs_RmOTVZb_KnmWA--44" value="(1,n)" style="text;html=1;strokeColor=none;fillColor=none;align=center;verticalAlign=middle;whiteSpace=wrap;rounded=0;" parent="1" vertex="1">
          <mxGeometry x="440" y="170" width="60" height="30" as="geometry" />
        </mxCell>
        <mxCell id="-ZSBs_RmOTVZb_KnmWA--45" value="(1,1)" style="text;html=1;strokeColor=none;fillColor=none;align=center;verticalAlign=middle;whiteSpace=wrap;rounded=0;" parent="1" vertex="1">
          <mxGeometry x="600" y="260" width="60" height="30" as="geometry" />
        </mxCell>
        <mxCell id="-ZSBs_RmOTVZb_KnmWA--46" value="" style="endArrow=none;html=1;rounded=0;" parent="1" source="-ZSBs_RmOTVZb_KnmWA--50" target="0G5Jt0Bgdf21u58A2daR-32" edge="1">
          <mxGeometry relative="1" as="geometry">
            <mxPoint x="220" y="440" as="sourcePoint" />
            <mxPoint x="380" y="440" as="targetPoint" />
            <Array as="points">
              <mxPoint x="740" y="380" />
            </Array>
          </mxGeometry>
        </mxCell>
        <mxCell id="-ZSBs_RmOTVZb_KnmWA--49" value="" style="endArrow=none;html=1;rounded=0;" parent="1" source="0G5Jt0Bgdf21u58A2daR-32" target="-ZSBs_RmOTVZb_KnmWA--50" edge="1">
          <mxGeometry relative="1" as="geometry">
            <mxPoint x="720" y="333" as="sourcePoint" />
            <mxPoint x="720" y="348" as="targetPoint" />
            <Array as="points">
              <mxPoint x="740" y="300" />
            </Array>
          </mxGeometry>
        </mxCell>
        <mxCell id="-ZSBs_RmOTVZb_KnmWA--50" value="Depende&lt;br&gt;N,1" style="shape=rhombus;perimeter=rhombusPerimeter;whiteSpace=wrap;html=1;align=center;" parent="1" vertex="1">
          <mxGeometry x="730" y="310" width="90" height="60" as="geometry" />
        </mxCell>
        <mxCell id="-ZSBs_RmOTVZb_KnmWA--51" value="(1,n)" style="text;html=1;strokeColor=none;fillColor=none;align=center;verticalAlign=middle;whiteSpace=wrap;rounded=0;" parent="1" vertex="1">
          <mxGeometry x="720" y="270" width="60" height="30" as="geometry" />
        </mxCell>
        <mxCell id="-ZSBs_RmOTVZb_KnmWA--52" value="(1,1)" style="text;html=1;strokeColor=none;fillColor=none;align=center;verticalAlign=middle;whiteSpace=wrap;rounded=0;" parent="1" vertex="1">
          <mxGeometry x="720" y="375" width="60" height="30" as="geometry" />
        </mxCell>
        <mxCell id="-ZSBs_RmOTVZb_KnmWA--54" value="(1,n)" style="text;html=1;strokeColor=none;fillColor=none;align=center;verticalAlign=middle;whiteSpace=wrap;rounded=0;" parent="1" vertex="1">
          <mxGeometry x="580" y="405" width="60" height="30" as="geometry" />
        </mxCell>
      </root>
    </mxGraphModel>
  </diagram>
</mxfile>
